<svg width="32" height="25" viewBox="0 0 32 25" fill="none" xmlns="http://www.w3.org/2000/svg">
<path opacity="0.88" d="M14.3865 6.90451C15.1088 6.48748 16.2799 6.48748 17.0022 6.90451L29.6449 14.2038C30.608 14.7598 30.608 15.6613 29.6449 16.2174L17.0022 23.5166C16.2799 23.9337 15.1088 23.9337 14.3865 23.5166L1.74378 16.2174C0.780693 15.6613 0.780694 14.7598 1.74378 14.2038L14.3865 6.90451Z" fill="url(#paint0_linear_23263_18604)"/>
<path opacity="0.7" d="M14.3865 3.47287C15.1088 3.05584 16.2799 3.05584 17.0022 3.47287L26.6736 9.05668C27.6367 9.61272 27.6367 10.5142 26.6736 11.0703L17.0022 16.6541C16.2799 17.0711 15.1088 17.0711 14.3865 16.6541L4.71503 11.0703C3.75194 10.5142 3.75194 9.61272 4.71503 9.05668L14.3865 3.47287Z" fill="url(#paint1_linear_23263_18604)"/>
<path opacity="0.7" d="M14.3865 0.755097C15.1088 0.338069 16.2799 0.338068 17.0022 0.755096L23.3313 4.40923C24.2944 4.96526 24.2944 5.86678 23.3313 6.42282L17.0022 10.0769C16.2799 10.494 15.1088 10.494 14.3865 10.0769L8.05733 6.42282C7.09425 5.86678 7.09425 4.96526 8.05733 4.40923L14.3865 0.755097Z" fill="url(#paint2_linear_23263_18604)" fill-opacity="0.7"/>
<path opacity="0.7" fill-rule="evenodd" clip-rule="evenodd" d="M14.386 6.90506C15.1083 6.48803 16.2799 6.48803 17.0022 6.90506L19.7483 8.49002L17.0022 10.0769C16.2799 10.494 15.1083 10.494 14.386 10.0769L11.6389 8.49002L14.386 6.90506Z" fill="url(#paint3_linear_23263_18604)" fill-opacity="0.7"/>
<defs>
<linearGradient id="paint0_linear_23263_18604" x1="-1.08066" y1="11.7188" x2="28.4146" y2="15.7289" gradientUnits="userSpaceOnUse">
<stop stop-color="#1C64FD"/>
<stop offset="1" stop-color="#8059F3"/>
</linearGradient>
<linearGradient id="paint1_linear_23263_18604" x1="2.09517" y1="7.23281" x2="26.0064" y2="10.4837" gradientUnits="userSpaceOnUse">
<stop stop-color="#1C64FD"/>
<stop offset="1" stop-color="#8059F3"/>
</linearGradient>
<linearGradient id="paint2_linear_23263_18604" x1="5.6676" y1="3.32896" x2="23.2975" y2="5.72585" gradientUnits="userSpaceOnUse">
<stop stop-color="#1C64FD"/>
<stop offset="1" stop-color="#8059F3"/>
</linearGradient>
<linearGradient id="paint3_linear_23263_18604" x1="14.435" y1="6.59229" x2="17.193" y2="10.0228" gradientUnits="userSpaceOnUse">
<stop stop-color="#8059F3"/>
<stop offset="1" stop-color="#1C64FD"/>
</linearGradient>
</defs>
</svg>
