<svg width="280" height="280" viewBox="0 0 280 280" fill="none" xmlns="http://www.w3.org/2000/svg">
<path d="M27.5 57.4742C27.5 54.2794 31.0606 52.3738 33.7188 54.146L70.7188 78.8133C71.8316 79.5552 72.5 80.8041 72.5 82.1415V137.86C72.5 139.197 71.8316 140.446 70.7188 141.188L33.7188 165.854C31.0605 167.626 27.5 165.721 27.5 162.526V57.4742Z" fill="#12B886"/>
<path d="M160.719 63.8136C161.832 64.5554 162.5 65.8043 162.5 67.1417V152.86C162.5 154.198 161.832 155.447 160.719 156.188L119.281 183.813C118.168 184.554 117.5 185.803 117.5 187.141V197.861C117.5 199.199 116.832 200.448 115.719 201.189L78.7187 225.855C76.0605 227.627 72.5 225.722 72.5 222.527V187.143C72.5 185.805 73.1684 184.556 74.2811 183.815L115.719 156.188C116.832 155.447 117.5 154.198 117.5 152.86V42.4743C117.5 39.2794 121.061 37.3739 123.719 39.1461L160.719 63.8136Z" fill="#1C64FD"/>
<path d="M250.956 53.8C251.93 54.5578 252.5 55.723 252.5 56.9574V163.045C252.5 164.279 251.93 165.444 250.956 166.202L209.571 198.389C208.578 199.161 208.006 200.355 208.027 201.613L208.464 227.817C208.487 229.178 207.816 230.457 206.683 231.212L169.596 255.936C166.963 257.692 163.431 255.839 163.378 252.675L162.537 202.185C162.514 200.824 163.185 199.545 164.317 198.79L205.719 171.188C206.832 170.446 207.5 169.197 207.5 167.859V28.1788C207.5 24.8502 211.329 22.9778 213.956 25.0214L250.956 53.8Z" fill="#1CB2FD"/>
</svg>
